<?xml version="1.0" encoding="UTF-8" standalone="no"?>
<svg
   xmlns:dc="http://purl.org/dc/elements/1.1/"
   xmlns:cc="http://creativecommons.org/ns#"
   xmlns:rdf="http://www.w3.org/1999/02/22-rdf-syntax-ns#"
   xmlns:svg="http://www.w3.org/2000/svg"
   xmlns="http://www.w3.org/2000/svg"
   viewBox="0 0 361.38666 175.17332"
   height="175.17332"
   width="361.38666"
   xml:space="preserve"
   id="svg2"
   version="1.1"><metadata
     id="metadata8"><rdf:RDF><cc:Work
         rdf:about=""><dc:format>image/svg+xml</dc:format><dc:type
           rdf:resource="http://purl.org/dc/dcmitype/StillImage" /></cc:Work></rdf:RDF></metadata><defs
     id="defs6" /><g
     transform="matrix(1.3333333,0,0,-1.3333333,0,175.17333)"
     id="g10"><g
       transform="scale(0.1)"
       id="g12"><path
         id="path14"
         style="fill:#231f20;fill-opacity:1;fill-rule:nonzero;stroke:none"
         d="m 377.688,223.531 h -43.27 c 0.062,-2.011 0,-9.59 0.062,-11.793 0.262,-8.347 0.907,-19.617 1.102,-26.679 h -5.379 c -0.062,0.191 -0.707,3.363 -0.773,3.562 -5.637,20.207 -11.207,27.777 -16.711,32.117 -7.383,6.223 -18.981,9.782 -34.981,9.723 -15.867,0 -28.234,-4.211 -35.492,-12.313 -4.211,-4.726 -6.605,-11.328 -6.41,-19.109 0.453,-14.238 10.164,-21.437 29.207,-32.117 7.062,-3.953 16.973,-9.203 35.5,-19.051 27.785,-14.832 43.07,-31.742 43.781,-57.7108 1.043,-37.5 -32.254,-58.1719 -66.773,-58.2188 -43.016,-0.1328 -70.992,23.0469 -70.992,44.8789 0,8.0391 4.726,13.3399 12.175,13.3399 11.332,0 14.055,-6.8594 18.653,-20.7188 6.222,-18.5898 23.187,-28.25 40.226,-28.25 19.95,0 37.957,11.7969 37.696,34.4688 -0.582,11.3281 -6.93,26.3598 -31.672,39.7698 -8.875,4.859 -28.633,15.609 -36.66,20.14 -18.852,10.621 -36.789,22.282 -37.567,48.899 -0.328,12.832 3.434,24.359 11.465,33.551 1.875,2.011 5.309,5.441 5.309,5.441 h -52.079 v -5.18 -0.582 -132.7888 c 0,-2.1289 0.258,-4.3985 0.458,-6.4688 C 180.133,29.5313 217.246,0 278.129,0 c 55.508,0 93.531,29.4102 99.101,78.2383 0.258,2.0703 0.458,4.4101 0.458,6.5508 V 223.531" /><path
         id="path16"
         style="fill:#231f20;fill-opacity:1;fill-rule:nonzero;stroke:none"
         d="m 530.547,156.68 c -3.238,13.351 -6.676,18.269 -10.109,21.121 -4.532,4.019 -12.172,6.347 -22.278,6.347 -16.387,0 -26.683,-7.257 -26.683,-20.41 0,-9.129 5.117,-16.058 17.355,-22.859 l 21.895,-12.238 c 17.55,-9.852 26.875,-18.27 26.875,-35.0394 0,-23.2618 -20.789,-37.7735 -47.082,-37.7735 -15.223,0 -29.735,2.7305 -39.836,7.8438 0.191,5.1172 0.191,10.6875 0.191,16.3867 0,5.3711 0,9.332 -0.191,13.9297 h 3.82 c 3.234,-12.5664 7.254,-19.2383 10.297,-22.0899 5.183,-4.7968 13.344,-9.5273 29.926,-9.5273 13.925,0 24.937,7.7773 24.937,21.5078 0,7.4492 -5.117,16.3911 -19.953,24.7421 l -23.117,13.219 c -11.985,6.601 -22.09,15.41 -22.09,32.582 0,20.918 16,36.398 50.715,36.398 9.328,0 20.211,-1.941 28.957,-4.211 -0.196,-5.379 -0.196,-9.519 -0.196,-14.699 0,-5.32 0.196,-10.691 0.196,-15.23 h -3.629" /><path
         id="path18"
         style="fill:#231f20;fill-opacity:1;fill-rule:nonzero;stroke:none"
         d="m 642.793,168.148 c -7.445,10.231 -16.578,16.391 -30.504,16.391 -23.445,0 -38.476,-19.687 -38.476,-53.57 0,-23.25 5.507,-42.7502 15.218,-54.5393 7.258,-9.1289 16.782,-15.0195 29.539,-15.0195 24.223,0 37.957,21.3086 37.957,55.0508 0,22.277 -5.183,40.219 -13.734,51.687 M 614.555,55.6406 c -13.344,0 -25.524,3.4297 -35.625,9.9102 -18.071,11.0703 -29.731,31.8711 -29.731,56.0272 0,42.871 30.313,69.242 68.594,69.242 14.508,0 27.465,-4.211 37.953,-11.851 15.609,-11.469 25.328,-30.117 25.328,-52.598 0,-41.5116 -25.133,-70.7304 -66.519,-70.7304" /><path
         id="path20"
         style="fill:#231f20;fill-opacity:1;fill-rule:nonzero;stroke:none"
         d="m 1024.49,168.148 c -7.44,10.231 -16.64,16.391 -30.502,16.391 -23.445,0 -38.476,-19.687 -38.476,-53.57 0,-23.25 5.508,-42.7502 15.218,-54.5393 7.258,-9.1289 16.782,-15.0195 29.54,-15.0195 24.22,0 37.96,21.3086 37.96,55.0508 0,22.277 -5.19,40.219 -13.74,51.687 M 996.254,55.6406 c -13.344,0 -25.524,3.4297 -35.625,9.9102 -18.07,11.0703 -29.731,31.8711 -29.731,56.0272 0,42.871 30.313,69.242 68.594,69.242 14.508,0 27.468,-4.211 37.958,-11.851 15.61,-11.469 25.32,-30.117 25.32,-52.598 0,-41.5116 -25.13,-70.7304 -66.516,-70.7304" /><path
         id="path22"
         style="fill:#231f20;fill-opacity:1;fill-rule:nonzero;stroke:none"
         d="m 1438.38,92.6211 c -2.71,-9.4492 -5.76,-16.7695 -8.02,-20.4023 -1.57,-1.879 -4.22,-3.9493 -7.06,-4.918 -5.32,-1.8789 -16.78,-2.6602 -27.28,-2.6602 -7.58,0 -12.17,0.5196 -14.64,1.5508 -1.75,0.7305 -3.04,2.0781 -3.43,4.1484 -1.55,6.8711 -1.55,25.9102 -1.55,52.4102 18.14,0 25.59,-0.59 29.92,-1.5 2.85,-0.641 4.41,-1.551 5.89,-3.43 1.76,-2.269 3.24,-8.742 4.22,-14.898 h 3.04 c -0.13,7.84 -0.13,17.687 -0.13,21.769 0,5.309 0.13,17.68 0.32,22.598 h -3.03 c -1.5,-7 -2.86,-11.398 -4.22,-13.668 -0.9,-1.551 -2.66,-2.851 -4.14,-3.43 -3.64,-1.55 -10.69,-1.882 -31.87,-1.882 0,20.152 0.38,43.211 1.36,48.972 0.39,1.879 2.07,3.43 4.6,3.758 4.14,0.582 9.32,0.781 12.89,0.781 11.66,0 20.01,-0.91 23.9,-2.082 2.07,-0.578 4.72,-2.457 5.89,-4.789 1.1,-2.269 3.24,-7.84 5.32,-17.097 h 3.42 c -0.57,10.296 -0.57,21.699 -0.57,29.859 -24.75,-0.133 -113.23,-0.133 -118.34,-0.133 -5.12,0 -11.79,0 -21.9,0.32 v -2.648 c 9.13,-1.301 11.79,-2.07 13.73,-3.051 1.49,-0.769 2.27,-2.07 2.66,-3.429 0.58,-2.258 0.97,-6.282 1.1,-13.918 0.45,-12.571 0.58,-32 1.17,-66.0707 -39.64,51.8207 -55.06,72.2187 -66.85,89.1167 -3.04,-0.187 -11.85,-0.32 -18.33,-0.32 h -46.5 c -5.12,0 -11.79,0 -21.9,0.32 v -2.648 c 9.14,-1.301 11.79,-2.07 13.73,-3.051 1.5,-0.769 2.27,-2.07 2.66,-3.429 0.58,-2.258 0.97,-6.282 1.1,-13.918 0.46,-12.571 0.58,-32 1.17,-66.0707 -39.64,51.8207 -55.06,72.2187 -66.85,89.1167 -3.04,-0.187 -11.85,-0.32 -18.33,-0.32 -5.11,0 -20.01,0 -24.42,0.32 v -2.648 c 6.55,-0.711 10.88,-2.07 12.83,-2.66 3.95,-1.36 5.5,-3.82 5.5,-9.52 0,-5.371 -0.58,-82.9098 -0.77,-91.2614 -0.2,-6.4805 -0.78,-11.6602 -1.3,-14.3203 -0.39,-1.75 -1.75,-3.0391 -3.43,-3.8164 -2.33,-0.9727 -6.16,-1.8711 -12.44,-2.6524 v -2.6601 c 10.49,0.1992 17.36,0.3203 22.48,0.3203 5.18,0 11.66,0 21.96,-0.3203 v 2.6601 c -9.33,1.4805 -12.37,2.2618 -14.32,3.2422 -1.49,0.7696 -2.07,1.9297 -2.46,3.2266 -0.58,2.2734 -1.17,7.2617 -1.36,14.9023 -0.32,11.7891 -0.71,54.8594 -1.3,89.0004 16.78,-21.571 66.72,-86.7308 88.42,-116.4691 l 4.01,0.7187 c 0,2.918 -0.77,19.5 -0.77,55.3084 0,23.973 0.39,49.492 0.58,53.903 0.19,6.539 0.71,11.269 1.36,13.918 0.32,1.75 1.88,3.179 3.37,3.82 10.49,4.281 23.7,0.711 25.39,0 3.89,-1.621 5.51,-3.82 5.51,-9.52 0,-5.371 -0.59,-82.9098 -0.79,-91.2614 -0.19,-6.4805 -0.77,-11.6602 -1.29,-14.3203 -0.39,-1.75 -1.75,-3.0391 -3.43,-3.8164 -2.34,-0.9727 -6.15,-1.8711 -12.44,-2.6524 v -2.6601 c 10.5,0.1992 17.36,0.3203 22.54,0.3203 5.12,0 11.6,0 21.9,-0.3203 v 2.6601 c -9.33,1.4805 -12.44,2.2618 -14.32,3.2422 -1.49,0.7696 -2.07,1.9297 -2.46,3.2266 -0.58,2.2734 -1.17,7.2617 -1.36,14.9023 -0.39,11.7891 -0.71,54.8594 -1.3,89.0004 16.78,-21.571 66.72,-86.7308 88.41,-116.4691 l 4.02,0.7187 c 0,2.918 -0.77,19.5 -0.77,55.3084 0,23.973 0.38,49.492 0.58,53.903 0.19,6.539 0.71,11.269 1.29,13.918 0.39,1.75 1.62,3.05 3.44,3.82 11.46,4.73 24.61,0.519 26.49,-0.578 1.75,-1.102 2.26,-2.461 2.66,-4.41 1.35,-5.821 1.35,-21.301 1.35,-53.5 0,-33.9418 -0.19,-50.3325 -1.49,-56.2231 -0.45,-1.9375 -1.35,-2.8476 -2.72,-3.8203 -1.68,-0.9688 -4.92,-2.0781 -13.15,-3.0391 v -2.6601 c 8.75,0.1992 31.29,0.3203 36.41,0.3203 26.3,0 39.05,0 65.55,-0.1211 0.57,13.5312 1.35,25.7109 2.14,33.9414 l -3.25,0.1211" /><path
         id="path24"
         style="fill:#231f20;fill-opacity:1;fill-rule:nonzero;stroke:none"
         d="m 879.859,126.949 c 20.594,4.02 33.164,15.422 33.164,29.93 0,16.383 -7.453,30.832 -46.378,30.832 -5.118,0 -25.844,-0.191 -29.473,-0.191 -5.18,0 -17.16,0.191 -26.879,0.378 v -2.648 c 8.355,-1.172 11.402,-2.07 13.344,-3.238 1.683,-0.973 2.265,-2.461 2.656,-4.012 1.359,-5.898 1.359,-21.32 1.359,-53.898 0,-34.1332 -0.062,-50.0629 -1.425,-55.7739 -0.387,-1.75 -1.813,-3.6875 -3.176,-4.457 -1.356,-0.7813 -3.754,-2.0703 -9.004,-2.0703 -4.012,0 -8.871,1.9297 -12.5,4.5273 -4.598,3.1719 -10.488,10.1016 -19.297,22.1524 -3.172,4.3398 -15.418,23.1915 -21.117,32.3905 21.699,6.481 28.176,21.699 28.176,32.77 0,16.39 -6.672,34.07 -46.504,34.07 -5.117,0 -22.672,-0.191 -26.301,-0.191 -5.117,0 -21.113,0 -30.828,0.378 v -2.648 c 8.351,-1.172 11.465,-2.07 13.344,-3.238 1.679,-0.782 2.265,-2.653 2.656,-4.211 1.293,-5.699 1.293,-21.121 1.293,-53.699 0,-34.1332 -0.133,-51.3012 -1.489,-56.4106 -0.39,-1.75 -1.3,-2.9101 -2.656,-3.6328 -1.945,-0.9688 -4.992,-2.0781 -13.148,-3.0391 v -2.6601 c 8.742,0.1992 23.054,0.3203 28.172,0.3203 5.375,0 23.64,-0.1211 30.703,-0.3203 v 2.6601 c -8.746,1.1016 -13.149,2.0703 -14.899,3.2422 -1.488,0.7696 -2.781,2.4571 -3.172,3.8164 -1.167,4.0117 -1.945,12.7617 -1.945,50.1329 3.047,-0.449 9.524,-0.582 12.18,-0.582 h 2.137 c 9.718,-16.578 27.336,-45.8595 38.605,-60.1095 18.133,1.0391 35.555,1.0391 43.266,1.0391 5.375,0 33.226,-0.1992 44.043,-0.1992 38.672,0.1992 54.925,15.0312 54.925,37.3711 0,18.6605 -15.281,29.2815 -39.832,31.2185 m -144.054,-3.82 c -2.914,0 -7.446,0.199 -11.27,0.582 0,28.961 0.195,45.539 0.586,53.379 0.192,5.109 1.102,5.5 7.445,5.5 24.164,0 33.293,-9.52 33.293,-30.121 0,-23.438 -11.98,-29.34 -30.054,-29.34 m 114.133,53.57 c 0.191,4.34 1.875,5.5 7.445,5.5 23.84,0 33.101,-6.078 33.101,-26.488 0,-12.563 -5.312,-22.859 -17.101,-25.711 -3.438,-0.969 -11.27,-1.691 -18.914,-1.691 h -5.117 c 0,28.761 0.195,40.941 0.586,48.39 M 869.563,64.2617 c -9.004,0 -11.852,0.3789 -15.29,1.9297 -1.679,0.7305 -3.238,2.7969 -3.558,4.5391 -1.168,4.4101 -1.363,14.8398 -1.363,52.2105 h 4.207 c 15.613,0 22.089,-0.582 28.566,-3.242 8.742,-3.629 13.73,-13.34 13.73,-25.1287 0,-20.6015 -9.71,-30.3086 -26.292,-30.3086" /><path
         id="path26"
         style="fill:#231f20;fill-opacity:1;fill-rule:nonzero;stroke:none"
         d="m 1504.45,188.488 c 8.81,-0.199 23.71,-0.386 28.89,-0.386 5.38,0 20.66,0.187 27.79,0.386 v -2.718 c -8.62,-1.168 -12.25,-1.879 -14,-3.239 -1.16,-0.711 -2.07,-2.269 -2.26,-3.82 -0.78,-3.832 -1.36,-20.473 -1.36,-40.231 0,-34 0.39,-48.7691 4.21,-57.3784 5.7,-12.6328 19.11,-16.0703 30.24,-16.0703 15.87,0 31.56,5.3789 36.93,20.2695 3.1,8.6211 3.44,20.4692 3.44,47.0902 0,11.148 -0.34,26.23 -0.59,32.968 -0.32,8.231 -0.52,11.59 -1.1,13.93 -0.39,1.359 -1.56,2.531 -3.05,3.242 -1.94,0.969 -5.76,2.071 -14.77,3.239 v 2.718 c 10.36,-0.386 17.82,-0.386 23,-0.386 5.12,0 12.18,0.187 22.74,0.386 v -2.718 c -6.29,-0.711 -9.98,-1.692 -12.25,-2.661 -1.68,-0.578 -3.05,-2.07 -3.43,-3.82 -0.78,-2.461 -1.17,-7.449 -1.37,-13.93 -0.18,-4.269 -0.77,-13.211 -0.96,-33.871 0,-14.566 -0.39,-23.769 -0.78,-31.9997 -1.68,-28.1094 -19.69,-43.8477 -49.16,-43.8477 -30.05,0 -54.35,8.8086 -54.93,43.2696 -0.19,10.1678 -0.19,30.4418 -0.19,39.2498 0,5.891 0,34.262 -1.37,40.16 -0.38,1.551 -0.9,3.301 -2.65,4.02 -1.94,1.16 -4.59,2.262 -13.02,3.43 v 2.718" /><path
         id="path28"
         style="fill:#231f20;fill-opacity:1;fill-rule:nonzero;stroke:none"
         d="m 1755.18,165.359 c -0.19,7.653 -0.52,11.661 -1.09,13.93 -0.39,1.359 -1.17,2.723 -2.73,3.43 -1.87,0.972 -4.6,1.75 -13.8,3.051 v 2.718 c 10.18,-0.386 16.91,-0.386 22.02,-0.386 5.19,0 12.25,0.187 21.83,0.386 v -2.718 c -5.89,-0.711 -9.97,-1.489 -12.24,-2.661 -1.74,-0.769 -3.04,-2.07 -3.43,-3.82 -0.58,-2.66 -1.16,-7.449 -1.36,-13.93 -0.2,-4.461 -0.59,-30.109 -0.59,-54.211 0,-36.0074 0.79,-52.5894 0.79,-55.5074 l -4.02,-0.7187 c -21.82,29.8672 -71.96,95.2891 -88.81,116.9181 0.59,-34.262 0.98,-77.5314 1.37,-89.3908 0.2,-7.6289 0.77,-12.6211 1.29,-14.9609 0.39,-1.2969 0.98,-2.457 2.53,-3.2266 1.87,-0.9804 4.99,-1.6914 14.31,-3.2422 v -2.6601 c -10.3,0.3203 -16.84,0.3203 -21.96,0.3203 -5.17,0 -12.11,-0.1211 -22.6,-0.3203 v 2.6601 c 6.35,0.7813 10.17,1.75 12.44,2.6524 1.68,0.7773 3.04,2.1367 3.43,3.8164 0.58,2.7305 1.17,7.9023 1.36,14.3906 0.2,8.4102 0.71,86.3321 0.71,91.7111 0,5.699 -1.49,8.23 -5.5,9.519 -1.95,0.582 -6.35,1.95 -12.83,2.661 v 2.718 c 4.41,-0.386 19.37,-0.386 24.49,-0.386 6.47,0 15.35,0.187 18.39,0.386 11.85,-17.039 27.34,-37.508 67.17,-89.5778 -0.58,34.2618 -0.78,53.7618 -1.17,66.4488" /><path
         id="path30"
         style="fill:#231f20;fill-opacity:1;fill-rule:nonzero;stroke:none"
         d="m 2078.13,92.7617 c -2.66,-9.5312 -5.76,-16.7812 -8.03,-20.4726 -1.55,-1.8789 -4.21,-4.0196 -7.13,-4.9883 -5.31,-1.8789 -16.83,-2.6602 -27.32,-2.6602 -7.65,0 -12.25,0.5899 -14.78,1.5508 -1.68,0.7774 -3.03,2.0781 -3.42,4.2188 -1.5,6.8711 -1.5,25.9687 -1.5,52.6598 18.14,0 25.59,-0.648 29.99,-1.55 2.91,-0.59 4.41,-1.559 5.96,-3.442 1.69,-2.328 3.3,-8.808 4.21,-14.957 h 3.05 c -0.2,7.828 -0.2,17.809 -0.2,21.828 0,5.371 0.2,17.813 0.39,22.731 h -3.05 c -1.55,-6.989 -2.85,-11.461 -4.21,-13.731 -0.96,-1.558 -2.71,-2.91 -4.2,-3.429 -3.63,-1.559 -10.76,-1.942 -31.94,-1.942 0,20.274 0.39,43.453 1.3,49.223 0.39,1.879 2.14,3.371 4.6,3.82 4.21,0.578 9.39,0.719 13.02,0.719 11.66,0 20.08,-0.981 23.89,-2.078 2.14,-0.582 4.8,-2.461 5.97,-4.793 1.16,-2.27 3.23,-7.84 5.37,-17.231 h 3.44 c -0.59,10.371 -0.59,21.832 -0.59,30.051 -24.87,-0.187 -103.57,-0.449 -141.07,0.199 v -2.718 c 6.35,-0.52 10.75,-1.489 13.02,-2.27 3.43,-0.969 4.21,-2.852 4.21,-4.988 0,-2.653 -1.36,-8.813 -5.18,-18.59 -11.07,-28.301 -20.27,-50.063 -28.7,-70.9806 -7.83,20.7186 -17.03,44.0386 -27.91,72.7306 -4.21,11.34 -4.99,15.68 -4.99,17.418 0,1.75 0.91,3.25 3.44,4.41 1.94,0.781 6.67,1.75 12.43,2.27 v 2.718 c -16.78,-0.648 -82.06,-0.519 -112.57,0 v -2.718 c 8.22,-0.911 11.52,-2.079 13.4,-3.239 1.76,-1.172 2.27,-2.461 2.72,-4.402 1.3,-5.899 1.3,-21.379 1.3,-53.77 0,-34.0699 -0.19,-50.5192 -1.49,-56.4801 -0.39,-1.8672 -1.36,-2.8476 -2.72,-3.8203 -1.69,-0.8984 -4.99,-2.0781 -13.21,-3.0391 v -2.6601 c 8.81,0.1992 22.6,0.3203 27.78,0.3203 5.38,0 21.63,-0.1211 28.69,-0.3203 v 2.6601 c -8.54,0.961 -11.66,1.9414 -13.4,3.0391 -1.29,0.9727 -1.88,2.4727 -2.27,4.2109 -0.97,5.7696 -1.75,20.6719 -1.75,55.5115 0,34.258 0.59,49.028 1.56,54.539 0.39,1.75 1.17,3.301 2.46,4.211 1.49,1.16 6.29,2.91 12.76,2.91 4.66,0 8.42,-1.812 10.62,-3.429 4.8,-3.883 8.62,-12.5 23.19,-49.032 13.15,-33.3003 23.71,-60.1089 29.28,-76.9487 h 4.72 c 8.23,20.0781 19.76,47.0897 34.86,82.3207 15.15,34.976 18.19,40.359 21.43,43.007 2.66,2.27 7.19,3.95 12.37,3.95 8.03,0 10.43,-1.618 12.31,-2.778 1.75,-1.172 2.33,-2.461 2.72,-4.402 1.36,-5.899 1.36,-21.379 1.36,-53.77 0,-34.0699 -0.19,-50.5192 -1.55,-56.4801 -0.39,-1.8672 -1.37,-2.8476 -2.66,-3.8203 -1.75,-0.8984 -4.99,-2.0781 -13.21,-3.0391 v -2.6601 c 8.74,0.1992 31.35,0.3203 36.52,0.3203 26.44,0 39.19,0 65.88,-0.1211 0.59,13.6016 1.29,25.8398 2.07,34.0625 l -3.24,0.1406" /><path
         id="path32"
         style="fill:#231f20;fill-opacity:1;fill-rule:nonzero;stroke:none"
         d="m 2138.63,123.391 c 18.13,0 30.25,5.961 30.25,29.468 0,20.731 -9.2,30.25 -33.55,30.25 -6.28,0 -7.26,-0.39 -7.45,-5.507 -0.39,-7.832 -0.58,-24.543 -0.58,-53.622 3.89,-0.39 8.42,-0.589 11.33,-0.589 m 41.91,-65.6097 c -11.28,14.3789 -29.08,43.4567 -38.87,60.1097 h -2.13 c -2.66,0 -9.2,0.187 -12.24,0.519 0,-37.5116 0.77,-46.2498 1.94,-50.3319 0.38,-1.3593 1.75,-3.0468 3.24,-3.8164 1.74,-1.1015 6.15,-2.082 14.96,-3.2422 v -2.6601 c -7.12,0.1992 -25.45,0.3203 -30.83,0.3203 -5.18,0 -19.5,-0.1211 -28.3,-0.3203 v 2.6601 c 8.22,0.961 11.27,2.1407 13.21,3.0391 1.3,0.7812 2.26,1.9531 2.65,3.6328 1.36,5.1797 1.49,22.4102 1.49,56.6676 0,32.782 0,48.262 -1.29,54.02 -0.39,1.492 -0.98,3.441 -2.66,4.152 -1.94,1.16 -4.99,2.071 -13.4,3.239 v 2.718 c 9.71,-0.386 25.84,-0.386 30.95,-0.386 3.64,0 21.25,0.187 26.43,0.187 40.03,0 46.7,-17.809 46.7,-34.258 0,-11.082 -6.55,-26.429 -28.3,-32.972 5.76,-9.129 18,-28.1098 21.25,-32.4496 8.81,-12.1094 14.69,-18.9805 19.29,-22.2188 2.72,-1.9414 6.67,-4.2109 13.8,-5.1797 V 58.75 c -12.96,0 -28.88,-0.3906 -37.89,-0.9687" /><path
         id="path34"
         style="fill:#231f20;fill-opacity:1;fill-rule:nonzero;stroke:none"
         d="m 2300.17,157.141 c -3.23,13.339 -6.74,18.328 -10.17,21.179 -4.59,4.02 -12.24,6.34 -22.34,6.34 -16.45,0 -26.82,-7.308 -26.82,-20.461 0,-9.199 5.18,-16.058 17.43,-23 l 22.02,-12.238 c 17.55,-9.973 26.94,-18.391 26.94,-35.2305 0,-23.3203 -20.86,-37.9024 -47.22,-37.9024 -15.35,0 -29.92,2.7305 -40.02,7.8438 0.19,5.1797 0.19,10.7578 0.19,16.5195 0,5.3086 0,9.3867 -0.19,13.918 h 3.81 c 3.25,-12.6211 7.26,-19.2891 10.37,-22.1485 5.11,-4.789 13.34,-9.5898 29.99,-9.5898 13.99,0 25.06,7.8477 25.06,21.5781 0,7.5117 -5.11,16.5118 -20.07,24.9298 l -23.13,13.223 c -12.11,6.668 -22.22,15.476 -22.22,32.707 0,21.05 16.07,36.531 50.91,36.531 9.4,0 20.28,-1.879 29.08,-4.211 -0.18,-5.309 -0.18,-9.527 -0.18,-14.707 0,-5.371 0.18,-10.75 0.18,-15.281 h -3.62" /><path
         id="path36"
         style="fill:#231f20;fill-opacity:1;fill-rule:nonzero;stroke:none"
         d="m 2345.39,58.6797 c -5.19,0 -18.99,-0.1211 -27.8,-0.3203 v 2.6601 c 8.24,0.961 11.47,2.1407 13.22,3.0391 1.29,0.9727 2.26,1.9531 2.65,3.8203 1.37,5.9609 1.55,22.4102 1.55,56.4801 0,32.391 0,47.871 -1.35,53.77 -0.39,1.941 -0.97,3.23 -2.66,4.402 -1.94,1.16 -5.17,2.328 -13.41,3.239 v 2.718 c 8.81,-0.199 22.61,-0.386 27.8,-0.386 5.3,0 21.56,0.187 28.62,0.386 v -2.718 c -8.74,-1.168 -11.79,-2.079 -13.34,-3.239 -1.36,-0.91 -2.14,-2.461 -2.53,-4.211 -0.97,-5.511 -1.48,-20.281 -1.48,-54.539 0,-34.8396 0.77,-49.7419 1.67,-55.5115 0.4,-1.6914 0.98,-3.2382 2.34,-4.2109 1.75,-1.0977 4.79,-2.0781 13.34,-3.0391 v -2.6601 c -7.06,0.1992 -23.32,0.3203 -28.62,0.3203" /><path
         id="path38"
         style="fill:#231f20;fill-opacity:1;fill-rule:nonzero;stroke:none"
         d="m 2436.06,58.6797 c -5.12,0 -19.1,-0.1211 -27.98,-0.3203 v 2.6601 c 8.1,0.961 11.73,2.1407 13.48,3.0391 1.29,0.9727 2.26,1.9531 2.64,3.8203 1.37,5.9609 1.76,22.4102 1.76,56.4801 0,32.782 -0.19,47.481 -0.97,53.442 -0.2,1.879 -1.36,3.371 -4.6,3.82 -3.82,0.328 -8.23,0.52 -11.85,0.52 -6.54,0 -12.25,-0.969 -15.88,-2.461 -2.13,-0.969 -4.27,-2.852 -5.57,-5.121 -1.35,-2.329 -4.27,-9 -6.15,-18.071 h -3.44 c 0.4,10.364 0.59,23.774 0.59,32 24.87,-0.199 33.88,-0.386 58.75,-0.386 24.87,0 33.68,0.187 58.56,0.386 0,-8.226 0.19,-21.636 0.58,-32 h -3.63 c -1.94,9.071 -4.99,15.742 -6.09,18.071 -1.36,2.269 -3.5,3.953 -5.63,4.921 -3.76,1.692 -8.95,2.661 -14.9,2.661 -3.63,0 -8.81,-0.192 -12.63,-0.52 -3.24,-0.449 -4.6,-1.941 -4.79,-3.82 -0.33,-5.18 -0.91,-19.563 -0.91,-54.211 0,-34.8517 0.58,-49.5509 1.49,-55.3205 0.2,-1.6914 1.16,-3.2382 2.46,-4.2109 1.56,-1.0977 4.98,-2.0781 13.66,-3.0391 v -2.6601 c -7.11,0.1992 -23.57,0.3203 -28.95,0.3203" /><path
         id="path40"
         style="fill:#231f20;fill-opacity:1;fill-rule:nonzero;stroke:none"
         d="m 2535.81,58.6797 c -5.18,0 -27.72,-0.1211 -36.6,-0.3203 v 2.6601 c 8.29,0.961 11.54,2.1407 13.29,3.0391 1.29,0.9727 2.26,1.9531 2.65,3.8203 1.36,5.9609 1.49,22.4102 1.49,56.4801 0,32.391 0,47.871 -1.29,53.77 -0.46,1.941 -0.98,3.23 -2.73,4.402 -1.87,1.16 -5.12,2.328 -13.41,3.239 v 2.718 c 9.2,-0.199 30.06,-0.386 35.24,-0.386 24.87,0 36.01,0 60.89,0.187 0,-8.219 0,-19.68 0.58,-30.051 h -3.49 c -2.08,9.391 -4.15,14.961 -5.32,17.231 -1.17,2.332 -3.82,4.211 -5.96,4.793 -3.82,1.097 -12.24,2.078 -23.9,2.078 -3.63,0 -8.81,-0.199 -13.02,-0.719 -2.53,-0.449 -4.21,-1.941 -4.6,-3.82 -0.97,-5.77 -1.35,-28.949 -1.35,-49.223 21.24,0 28.37,0.383 31.99,1.942 1.55,0.519 3.24,1.871 4.21,3.429 1.3,2.27 2.65,6.742 4.21,13.731 h 3.04 c -0.19,-4.918 -0.39,-17.36 -0.39,-22.731 0,-4.019 0,-14 0.2,-21.828 h -3.11 c -0.91,6.149 -2.4,12.629 -4.15,14.957 -1.55,1.883 -3.03,2.852 -5.95,3.442 -4.41,0.902 -11.86,1.55 -30.05,1.55 0,-26.6911 0,-45.7887 1.55,-52.6598 0.39,-2.1407 1.68,-3.4414 3.43,-4.2188 2.46,-0.9609 7.13,-1.5508 14.77,-1.5508 10.49,0 21.96,0.7813 27.33,2.6602 2.92,0.9687 5.57,3.1094 7.07,4.9883 2.32,3.6914 5.37,10.9414 8.02,20.4726 l 3.3,-0.1406 c -0.78,-8.2227 -1.55,-20.4609 -2.13,-34.0625 -26.56,0.1211 -39.38,0.1211 -65.81,0.1211" /><path
         id="path42"
         style="fill:#231f20;fill-opacity:1;fill-rule:nonzero;stroke:none"
         d="m 2694.89,157.141 c -3.3,13.339 -6.74,18.328 -10.17,21.179 -4.6,4.02 -12.24,6.34 -22.41,6.34 -16.46,0 -26.75,-7.308 -26.75,-20.461 0,-9.199 5.12,-16.058 17.36,-23 l 22.02,-12.238 c 17.62,-9.973 27.01,-18.391 27.01,-35.2305 0,-23.3203 -20.85,-37.9024 -47.29,-37.9024 -15.34,0 -29.85,2.7305 -40.03,7.8438 0.27,5.1797 0.27,10.7578 0.27,16.5195 0,5.3086 0,9.3867 -0.27,13.918 h 3.83 c 3.3,-12.6211 7.32,-19.2891 10.36,-22.1485 5.19,-4.789 13.41,-9.5898 30.05,-9.5898 14,0 25.07,7.8477 25.07,21.5781 0,7.5117 -5.18,16.5118 -20.08,24.9298 l -23.18,13.223 c -12.05,6.668 -22.22,15.476 -22.22,32.707 0,21.05 16.12,36.531 50.91,36.531 9.39,0 20.34,-1.879 29.15,-4.211 -0.19,-5.309 -0.19,-9.527 -0.19,-14.707 0,-5.371 0.19,-10.75 0.19,-15.281 h -3.63" /><path
         id="path44"
         style="fill:#656263;fill-opacity:1;fill-rule:nonzero;stroke:none"
         d="m 1818.46,968.211 h -92.88 V 610.344 c 0,-88.867 -47.66,-139.778 -130.71,-139.778 -82.06,0 -127.28,49.618 -127.28,139.778 v 357.867 h -103.31 v -370.43 c 0,-70.992 20.34,-126.758 60.5,-165.754 36.41,-36.398 89.26,-55.636 152.8,-55.636 57.65,0 109.14,20.531 149.1,56.804 0,-18.523 0,-49.941 0,-49.941 h 102.21 v 584.957 h -10.43" /><path
         id="path46"
         style="fill:#656263;fill-opacity:1;fill-rule:nonzero;stroke:none"
         d="m 2063.88,1141.47 h -92.94 c 0,0 0,-158.236 0,-176.63 -15.15,0 -71.12,0 -71.12,0 v -83.883 c 0,0 55.97,0 71.12,0 0,-19.559 0,-335.965 0,-335.965 0,-98.262 60.82,-161.738 154.93,-161.738 h 68.85 v 91.781 h -53.95 c -44.69,0 -66.46,23.645 -66.46,72.285 0,0 0,314.078 0,333.637 17.3,0 120.41,0 120.41,0 v 83.883 c 0,0 -103.11,0 -120.41,0 0,18.394 0,176.63 0,176.63 h -10.43" /><path
         id="path48"
         style="fill:#656263;fill-opacity:1;fill-rule:nonzero;stroke:none"
         d="m 2249.58,675.766 c 0,-184.664 99.82,-299.375 260.45,-299.375 82.13,0 134.54,23.578 193.41,86.992 l 6.94,7.445 -71.39,68.461 -7.06,-7.965 c -41,-45.472 -71.83,-60.758 -121.9,-60.758 -52.59,0 -94.76,20.664 -122.29,59.786 -24.74,34.461 -34.78,76.496 -34.78,145.414 0,68.851 10.04,110.886 34.72,145.281 27.59,39.254 69.76,59.91 122.35,59.91 50.84,0 81.62,-15.086 121.9,-59.652 l 7.06,-7.836 71.39,67.043 -6.94,7.578 c -58.87,63.473 -111.28,87.113 -193.41,87.113 -160.63,0 -260.45,-114.777 -260.45,-299.437" /><path
         id="path50"
         style="fill:#fcd216;fill-opacity:1;fill-rule:nonzero;stroke:none"
         d="M 174.105,728.879 V 380.988 h 932.845 v 575.11 C 803.043,903.824 644.027,831.477 368.617,688.199 l -194.512,40.68" /><path
         id="path52"
         style="fill:#fcd216;fill-opacity:1;fill-rule:nonzero;stroke:none"
         d="M 1106.95,1313.83 H 174.105 V 904.797 c 309.739,112.383 639.817,183.693 932.845,206.753 v 202.28" /><path
         id="path54"
         style="fill:#656263;fill-opacity:1;fill-rule:nonzero;stroke:none"
         d="M 1106.95,1111.55 C 813.922,1088.49 483.844,1017.18 174.105,904.797 115.23,883.422 57.0664,860.621 0,836.336 L 368.617,746.887 C 666.824,901.945 852.07,972.551 1209.03,1027.61 v 90.16 c -33.42,-1.43 -67.49,-3.44 -102.08,-6.22" /></g></g></svg>